<svg width="25" height="335" viewBox="0 0 25 335" fill="none" xmlns="http://www.w3.org/2000/svg">
<g filter="url(#filter0_dd_2_243)">
<path d="M5.72931 200.967H8.8392L8.8392 210.967H5.72931L5.72931 200.967ZM7.27876 196C8.27876 196 9.08096 196.802 9.08096 197.802C9.08096 198.802 8.27876 199.604 7.27876 199.604C6.27876 199.604 5.47656 198.791 5.47656 197.802C5.47656 196.813 6.27876 196 7.27876 196Z" fill="#7E7E7E"/>
<path d="M10.7845 200.967H13.7626V202.33H13.8065C14.2241 201.539 15.2351 200.714 16.7516 200.714C19.8944 200.714 20.4769 202.78 20.4769 205.473V210.956H17.367V206.099C17.367 204.934 17.345 203.451 15.7516 203.451C14.1582 203.451 13.8834 204.714 13.8834 206.022L13.8834 210.967H10.7736L10.7736 200.967H10.7845Z" fill="#7E7E7E"/>
<path d="M20.5242 227.695C19.9942 227.943 19.4142 228.087 18.8542 228.19C19.1242 228.138 19.5142 227.644 19.6742 227.438C19.9142 227.129 20.1142 226.779 20.2342 226.398C20.2442 226.367 20.2642 226.326 20.2342 226.305C20.1942 226.295 20.1742 226.305 20.1442 226.305C19.5142 226.655 18.8542 226.902 18.1642 227.088C18.1042 227.098 18.0642 227.088 18.0242 227.047C17.9642 226.974 17.9142 226.913 17.8542 226.861C17.5642 226.604 17.2442 226.408 16.8942 226.253C16.4242 226.058 15.9242 225.975 15.4242 226.006C14.9342 226.037 14.4542 226.181 14.0242 226.408C13.5942 226.645 13.2042 226.964 12.8942 227.355C12.5742 227.757 12.3442 228.241 12.2242 228.746C12.1042 229.23 12.1142 229.714 12.1842 230.208C12.1942 230.291 12.1842 230.301 12.1142 230.291C9.39419 229.868 7.13419 228.869 5.29419 226.717C5.21419 226.624 5.17419 226.624 5.10419 226.717C4.30419 227.953 4.69418 229.941 5.69418 230.919C5.82418 231.053 5.96418 231.176 6.11418 231.3C6.06418 231.31 5.39419 231.238 4.79419 230.919C4.71419 230.867 4.67419 230.898 4.66419 230.991C4.66419 231.125 4.66419 231.248 4.68419 231.393C4.83419 232.649 5.68419 233.813 6.83419 234.266C6.97419 234.328 7.12418 234.379 7.27418 234.4C7.01418 234.462 6.74419 234.503 5.98419 234.441C5.89419 234.421 5.85419 234.472 5.89419 234.565C6.46419 236.161 7.68419 236.635 8.60419 236.903C8.72419 236.923 8.85419 236.923 8.97419 236.954C8.97419 236.964 8.96419 236.964 8.95419 236.975C8.65418 237.448 7.59419 237.809 7.10419 237.984C6.21419 238.303 5.23419 238.447 4.29419 238.355C4.14419 238.334 4.11419 238.334 4.07419 238.355C4.03419 238.386 4.07418 238.417 4.11418 238.458C4.30418 238.592 4.50419 238.705 4.70419 238.818C5.30419 239.148 5.93419 239.405 6.58419 239.591C9.96419 240.548 13.7642 239.848 16.3042 237.253C18.2942 235.214 18.9942 232.402 18.9942 229.59C18.9942 229.477 19.1242 229.415 19.1942 229.364C19.7142 228.962 20.1342 228.478 20.5142 227.943C20.6042 227.819 20.6042 227.716 20.6042 227.675C20.6042 227.613 20.6042 227.634 20.5342 227.664L20.5242 227.695Z" fill="#7E7E7E"/>
<path d="M13.0737 289.136C11.7732 289.136 10.7041 290.194 10.7041 291.506C10.7041 292.817 11.7621 293.875 13.0737 293.875C14.3852 293.875 15.4433 292.817 15.4433 291.506C15.4433 290.194 14.3852 289.136 13.0737 289.136Z" fill="#7E7E7E"/>
<path d="M17.2727 284H8.7312C6.94574 284 5.50195 285.444 5.50195 287.229L5.50195 295.771C5.50195 297.556 6.94574 299 8.7312 299H17.2727C19.0582 299 20.502 297.556 20.502 295.771V287.229C20.502 285.444 19.0582 284 17.2727 284ZM13.0626 295.198C11.0236 295.198 9.37043 293.544 9.37043 291.506C9.37043 289.467 11.0236 287.813 13.0626 287.813C15.1015 287.813 16.7547 289.467 16.7547 291.506C16.7547 293.544 15.1015 295.198 13.0626 295.198ZM16.9751 288.442C16.4902 288.442 16.0934 288.045 16.0934 287.56C16.0934 287.075 16.4902 286.678 16.9751 286.678C17.4601 286.678 17.8568 287.075 17.8568 287.56C17.8568 288.045 17.4601 288.442 16.9751 288.442Z" fill="#7E7E7E"/>
<path d="M15.5123 264.977L15.8923 262.407H13.4923V260.742C13.4923 260.043 13.8223 259.354 14.9023 259.354H15.9923V257.175C15.9923 257.175 15.0123 257 14.0623 257C12.0923 257 10.8023 258.233 10.8023 260.454V262.407H8.6123L8.6123 264.977H10.8023V271H13.5023L13.5023 264.977H15.5123Z" fill="#7E7E7E"/>
<path d="M16.7708 312H8.22924C6.44379 312 5 313.444 5 315.229V323.771C5 325.556 6.44379 327 8.22924 327H16.7708C18.5562 327 20 325.556 20 323.771V315.229C20 313.444 18.5562 312 16.7708 312ZM15.9111 319.924L13.277 321.445L10.6429 322.966C10.3233 323.154 9.92652 322.922 9.92652 322.547V316.464C9.92652 316.089 10.3233 315.868 10.6429 316.045L13.277 317.566L15.9111 319.087C16.2307 319.274 16.2307 319.737 15.9111 319.913V319.924Z" fill="#7E7E7E"/>
<line x1="13" y1="100" x2="13" y2="175" stroke="#7E7E7E" stroke-width="2"/>
<path d="M6.38 1.72C6.18 1.72 6 1.88 6 2.1L6 4.46C6 4.66 6.18 4.84 6.38 4.84L11.24 4.84L11.24 9.4C11.24 9.6 11.42 9.78 11.62 9.78L13.8 9.78C14 9.78 14.18 9.6 14.18 9.4L14.18 4.84L17.06 4.84L17.06 10.38C17.06 10.6 17.24 10.76 17.44 10.76L19.62 10.76C19.82 10.76 20 10.6 20 10.38L20 2.1C20 1.88 19.82 1.72 19.62 1.72L6.38 1.72ZM12.98 11.9695C8.98 11.9695 5.8 15.1495 5.8 19.1495C5.8 23.1495 8.98 26.3495 12.98 26.3495C16.98 26.3495 20.2 23.1495 20.2 19.1495C20.2 15.1495 16.98 11.9695 12.98 11.9695ZM12.98 15.1695C15.18 15.1695 17 16.9695 17 19.1495C17 21.3495 15.18 23.1495 12.98 23.1495C10.8 23.1495 9 21.3495 9 19.1495C9 16.9695 10.8 15.1695 12.98 15.1695ZM6.38 28.7708C6.18 28.7708 6 28.9308 6 29.1508L6 36.6708C6 36.8908 6.18 37.0508 6.38 37.0508L8.56 37.0508C8.76 37.0508 8.94 36.8908 8.94 36.6708L8.94 31.9108L19.62 31.9108C19.82 31.9108 20 31.7308 20 31.5308L20 29.1508C20 28.9308 19.82 28.7708 19.62 28.7708L6.38 28.7708ZM6.38 38.9856C6.18 38.9856 6 39.1456 6 39.3656L6 46.8856C6 47.1056 6.18 47.2656 6.38 47.2656L8.56 47.2656C8.76 47.2656 8.94 47.1056 8.94 46.8856L8.94 42.1256L19.62 42.1256C19.82 42.1256 20 41.9456 20 41.7456L20 39.3656C20 39.1456 19.82 38.9856 19.62 38.9856L6.38 38.9856ZM12.98 48.1023C8.98 48.1023 5.8 51.2823 5.8 55.2823C5.8 59.2823 8.98 62.4823 12.98 62.4823C16.98 62.4823 20.2 59.2823 20.2 55.2823C20.2 51.2823 16.98 48.1023 12.98 48.1023ZM12.98 51.3023C15.18 51.3023 17 53.1023 17 55.2823C17 57.4823 15.18 59.2823 12.98 59.2823C10.8 59.2823 9 57.4823 9 55.2823C9 53.1023 10.8 51.3023 12.98 51.3023ZM6.08 67.3459C5.92 67.3859 5.8 67.5459 5.8 67.7059L5.8 68.0259C5.8 68.1659 5.9 68.3059 6.02 68.3659L14.2 72.0059L14.2 72.0659L6.02 75.7259C5.9 75.7859 5.8 75.9259 5.8 76.0659L5.8 76.3859C5.8 76.5459 5.92 76.7059 6.08 76.7459L19.52 80.5259C19.8 80.6059 20 80.4459 20 80.1659L20 77.8259C20 77.6659 19.86 77.5059 19.72 77.4659L12.94 75.7459L12.94 75.6659L19.98 72.5659C20.1 72.5259 20.2 72.4059 20.2 72.2259L20.2 71.8659C20.2 71.7059 20.1 71.5859 19.98 71.5259L12.94 68.4259L12.94 68.3459L19.72 66.6259C19.86 66.5859 20 66.4259 20 66.2659L20 63.9259C20 63.6459 19.8 63.4859 19.52 63.5659L6.08 67.3459Z" fill="#7E7E7E"/>
</g>
<defs>
<filter id="filter0_dd_2_243" x="0.0576172" y="1.71997" width="24.5466" height="333.28" filterUnits="userSpaceOnUse" color-interpolation-filters="sRGB">
<feFlood flood-opacity="0" result="BackgroundImageFix"/>
<feColorMatrix in="SourceAlpha" type="matrix" values="0 0 0 0 0 0 0 0 0 0 0 0 0 0 0 0 0 0 127 0" result="hardAlpha"/>
<feOffset dy="4"/>
<feGaussianBlur stdDeviation="2"/>
<feComposite in2="hardAlpha" operator="out"/>
<feColorMatrix type="matrix" values="0 0 0 0 0 0 0 0 0 0 0 0 0 0 0 0 0 0 0.25 0"/>
<feBlend mode="normal" in2="BackgroundImageFix" result="effect1_dropShadow_2_243"/>
<feColorMatrix in="SourceAlpha" type="matrix" values="0 0 0 0 0 0 0 0 0 0 0 0 0 0 0 0 0 0 127 0" result="hardAlpha"/>
<feOffset dy="4"/>
<feGaussianBlur stdDeviation="2"/>
<feComposite in2="hardAlpha" operator="out"/>
<feColorMatrix type="matrix" values="0 0 0 0 0 0 0 0 0 0 0 0 0 0 0 0 0 0 0.25 0"/>
<feBlend mode="normal" in2="effect1_dropShadow_2_243" result="effect2_dropShadow_2_243"/>
<feBlend mode="normal" in="SourceGraphic" in2="effect2_dropShadow_2_243" result="shape"/>
</filter>
</defs>
</svg>
